<?xml version="1.0" standalone="no"?>
<!DOCTYPE svg PUBLIC "-//W3C//DTD SVG 20010904//EN"
 "http://www.w3.org/TR/2001/REC-SVG-20010904/DTD/svg10.dtd">
<svg version="1.0" xmlns="http://www.w3.org/2000/svg"
 width="16.000000pt" height="16.000000pt" viewBox="0 0 16.000000 16.000000"
 preserveAspectRatio="xMidYMid meet">
<metadata>
Created by potrace 1.11, written by Peter Selinger 2001-2013
</metadata>
<g transform="translate(0.000000,16.000000) scale(0.002000,-0.002000)"
fill="#000000" stroke="none">
<path d="M3730 7884 c-406 -37 -715 -104 -1060 -229 -622 -226 -1176 -610
-1619 -1120 -521 -602 -848 -1364 -932 -2175 -17 -160 -17 -588 -1 -750 50
-491 199 -996 419 -1419 304 -585 727 -1062 1283 -1445 160 -110 228 -151 415
-244 397 -199 739 -312 1150 -377 218 -35 381 -47 630 -46 340 0 600 29 905
102 461 110 934 321 1310 585 208 146 357 270 531 444 256 256 431 479 608
775 288 481 473 1042 533 1615 17 162 17 609 0 770 -56 527 -221 1053 -475
1510 -528 954 -1439 1646 -2507 1905 -291 71 -510 96 -860 100 -157 1 -305 1
-330 -1z m770 -303 c408 -58 746 -161 1111 -340 434 -212 819 -509 1144 -883
388 -446 656 -972 793 -1558 126 -536 123 -1139 -9 -1670 -164 -665 -480
-1227 -959 -1710 -466 -471 -1040 -796 -1690 -960 -297 -75 -537 -103 -880
-103 -343 0 -583 28 -880 103 -349 88 -700 233 -1000 414 -313 189 -664 490
-899 771 -626 751 -925 1706 -836 2673 70 762 377 1476 881 2052 433 495 979
858 1594 1060 282 93 471 132 850 174 19 2 170 3 335 1 238 -2 330 -7 445 -24z"/>
<path d="M2621 6531 c-48 -13 -82 -41 -108 -91 -21 -39 -23 -57 -23 -179 0
-122 2 -141 23 -181 30 -60 65 -83 127 -84 27 -1 50 -4 50 -8 0 -4 -29 -79
-65 -168 -36 -89 -65 -163 -65 -166 0 -3 30 -4 66 -2 l67 3 78 205 c100 260
112 309 107 436 -4 117 -28 180 -84 214 -38 24 -121 34 -173 21z m96 -119 c22
-14 33 -63 33 -152 0 -126 -15 -160 -72 -160 -48 0 -61 36 -62 159 0 86 3 113
17 134 18 27 57 36 84 19z"/>
<path d="M3145 6536 c-5 -3 -22 -7 -37 -10 -39 -9 -88 -54 -109 -101 -17 -36
-19 -70 -19 -333 0 -242 3 -299 15 -330 34 -80 90 -116 186 -116 78 0 120 21
162 80 l28 40 0 324 0 324 -28 40 c-16 22 -42 48 -58 57 -29 17 -119 33 -140
25z m81 -137 c18 -20 19 -40 19 -309 0 -269 -1 -289 -19 -309 -19 -21 -60 -27
-84 -13 -25 17 -32 82 -32 322 0 240 7 305 32 322 24 14 65 8 84 -13z"/>
<path d="M3823 6479 l-63 -51 0 -69 c0 -38 3 -69 7 -69 3 0 30 18 59 40 29 22
56 40 59 40 3 0 5 -162 5 -360 l0 -360 65 0 65 0 -2 438 -3 437 -65 2 c-65 3
-65 2 -127 -48z"/>
<path d="M4467 6523 c-4 -3 -7 -201 -7 -440 l0 -433 70 0 70 0 0 190 0 189 98
3 97 3 0 60 0 60 -85 2 c-47 1 -91 2 -98 3 -10 0 -12 28 -10 123 l3 122 113 3
112 3 0 59 0 60 -178 0 c-98 0 -182 -3 -185 -7z"/>
<path d="M4945 6518 c-3 -7 -4 -204 -3 -438 l3 -425 68 -3 67 -3 0 251 c0 137
4 250 8 250 5 0 26 -51 46 -112 70 -211 62 -198 106 -198 l38 0 54 165 c30 91
58 162 61 158 4 -3 7 -120 7 -260 l0 -253 65 0 65 0 1 420 c1 231 2 428 3 438
1 14 -8 17 -63 17 l-64 0 -81 -222 c-51 -139 -85 -218 -90 -212 -6 5 -45 105
-87 221 l-77 213 -61 3 c-43 2 -63 -1 -66 -10z"/>
<path d="M3550 5725 l0 -75 75 0 76 0 -3 73 -3 72 -72 3 -73 3 0 -76z"/>
<path d="M1284 5236 c-3 -8 -4 -23 -2 -33 3 -17 107 -18 2728 -18 l2725 0 0
30 0 30 -2723 3 c-2365 2 -2723 0 -2728 -12z"/>
<path d="M1285 4778 c-3 -7 -4 -366 -3 -798 l3 -785 155 0 155 0 5 242 5 242
95 115 c52 64 98 116 102 116 4 0 28 -37 53 -82 25 -46 117 -208 203 -360
l157 -278 179 0 c154 0 177 2 172 15 -5 14 -249 431 -465 793 -89 151 -91 154
-73 176 9 12 125 151 257 310 132 158 242 292 243 297 2 5 -72 9 -181 9 l-185
0 -279 -344 -278 -344 -5 341 -5 342 -153 3 c-116 2 -154 0 -157 -10z"/>
<path d="M2664 4777 c-2 -7 -3 -69 -2 -138 l3 -124 208 -3 207 -2 0 -660 0
-660 155 0 155 0 2 658 3 657 208 3 207 2 0 140 0 140 -570 0 c-460 0 -572 -3
-576 -13z"/>
<path d="M4042 4203 c3 -576 4 -589 25 -646 38 -99 74 -156 142 -220 115 -108
246 -157 421 -157 175 0 306 49 421 157 67 64 104 121 142 220 21 57 22 69 25
646 l3 587 -156 0 -155 0 0 -540 c0 -350 -4 -557 -11 -590 -16 -75 -65 -139
-132 -174 -48 -24 -68 -29 -135 -29 -153 0 -244 75 -272 224 -6 30 -10 274
-10 580 l0 529 -156 0 -155 0 3 -587z"/>
<path d="M5570 3990 l0 -800 155 0 155 0 2 333 3 332 267 3 268 2 2 -332 3
-333 155 0 155 0 0 795 0 795 -155 0 -155 0 -5 -325 c-3 -179 -8 -324 -12
-322 -5 1 -125 2 -268 2 l-260 0 0 325 0 325 -155 0 -155 0 0 -800z"/>
<path d="M2262 2388 l3 -223 25 0 c25 0 25 1 28 98 l3 97 39 0 39 0 3 -97 3
-98 28 -3 27 -3 0 225 0 226 -30 0 -30 0 0 -95 0 -95 -40 0 -40 0 0 95 0 95
-30 0 -30 0 2 -222z"/>
<path d="M2782 2594 c-44 -30 -52 -64 -52 -212 0 -128 2 -142 23 -173 41 -60
128 -63 171 -6 18 25 21 45 24 160 4 148 -5 196 -45 226 -31 25 -89 27 -121 5z
m79 -54 c17 -10 19 -23 19 -155 0 -134 -1 -145 -20 -155 -14 -8 -26 -8 -40 0
-19 10 -20 21 -20 155 0 127 2 145 18 154 21 13 20 13 43 1z"/>
<path d="M3215 2598 c-3 -7 -4 -108 -3 -223 l3 -210 30 0 30 0 5 125 5 125 46
-125 c45 -120 48 -125 75 -125 l29 0 0 220 0 220 -30 0 -30 0 -5 -123 -5 -124
-45 124 c-42 114 -47 123 -73 126 -16 2 -29 -2 -32 -10z"/>
<path d="M3752 2594 c-44 -30 -52 -64 -52 -212 0 -128 2 -142 23 -173 13 -20
36 -37 55 -43 47 -13 92 3 119 43 21 31 23 45 23 173 0 148 -8 182 -52 212
-12 9 -38 16 -58 16 -20 0 -46 -7 -58 -16z m79 -54 c17 -10 19 -23 19 -155 0
-134 -1 -145 -20 -155 -14 -8 -26 -8 -40 0 -19 10 -20 21 -20 155 0 127 2 145
18 154 21 13 20 13 43 1z"/>
<path d="M4192 2388 l3 -223 90 0 90 0 3 28 c3 26 2 27 -47 27 -86 0 -81 -12
-81 201 l0 189 -30 0 -30 0 2 -222z"/>
<path d="M4634 2597 c-3 -8 -4 -96 -2 -196 l3 -181 28 -27 c22 -22 37 -28 73
-28 39 0 50 5 75 33 l29 33 -2 187 -3 187 -30 0 -30 0 -5 -184 c-4 -157 -7
-185 -22 -194 -12 -8 -21 -7 -32 2 -13 11 -16 45 -18 195 l-3 181 -28 3 c-17
2 -29 -2 -33 -11z"/>
<path d="M5114 2597 c-2 -7 -3 -107 -2 -222 l3 -210 93 -3 92 -3 0 31 c0 30
-1 30 -54 30 -34 0 -58 5 -65 14 -8 10 -12 65 -11 173 1 87 1 168 0 181 0 17
-6 22 -25 22 -14 0 -28 -6 -31 -13z"/>
<path d="M5560 2415 c0 -194 0 -196 24 -220 46 -46 109 -45 152 2 24 26 24 29
24 219 l0 194 -30 0 -30 0 0 -179 c0 -150 -3 -182 -16 -195 -18 -19 -20 -19
-45 -6 -18 10 -19 23 -19 195 l0 185 -30 0 -30 0 0 -195z"/>
<path d="M3032 1858 c-28 -14 -38 -51 -24 -83 8 -17 26 -29 59 -38 36 -10 49
-19 51 -35 4 -27 -38 -40 -75 -23 -34 16 -55 -1 -31 -25 22 -23 102 -22 128 1
21 19 26 60 10 85 -5 8 -31 21 -57 30 -52 16 -67 42 -34 59 14 8 27 8 46 -1
30 -13 58 3 38 23 -16 16 -85 20 -111 7z"/>
<path d="M3250 1755 c0 -96 3 -115 15 -115 12 0 15 19 15 115 0 96 -3 115 -15
115 -12 0 -15 -19 -15 -115z"/>
<path d="M3387 1863 c-4 -3 -7 -55 -7 -115 0 -101 1 -108 20 -108 18 0 20 7
20 65 0 36 4 65 9 65 5 0 28 -29 50 -65 29 -45 48 -65 61 -65 20 0 21 5 18
113 -2 92 -6 112 -18 112 -12 0 -16 -15 -18 -67 -2 -38 -6 -68 -10 -68 -4 0
-27 32 -51 70 -40 65 -58 80 -74 63z"/>
<path d="M3675 1845 c-21 -21 -25 -33 -25 -89 0 -84 25 -118 85 -118 30 0 45
6 62 27 13 14 23 30 23 36 0 16 -29 10 -50 -11 -43 -43 -80 -13 -80 64 0 28 5
57 12 64 18 18 49 14 74 -9 26 -24 45 -18 37 11 -14 52 -97 67 -138 25z"/>
<path d="M3907 1863 c-4 -3 -7 -55 -7 -115 l0 -108 81 0 c60 0 80 3 77 13 -3
7 -28 14 -59 17 -50 5 -54 7 -57 32 -3 26 -1 27 45 30 35 2 49 7 51 20 3 14
-6 17 -45 20 -44 3 -48 5 -51 31 -3 20 1 27 15 28 10 1 35 2 55 3 42 3 53 9
43 25 -7 12 -137 15 -148 4z"/>
<path d="M4302 1854 c-29 -20 -31 -58 -2 -49 19 6 20 2 20 -79 0 -70 3 -86 15
-86 12 0 15 19 15 115 0 123 -4 130 -48 99z"/>
<path d="M4490 1850 c-36 -36 -17 -120 28 -120 16 0 15 -19 -3 -50 -19 -33
-18 -40 3 -40 23 0 82 118 82 165 0 58 -68 87 -110 45z m74 -36 c9 -24 -5 -44
-30 -44 -13 0 -24 2 -24 4 0 2 -3 11 -6 19 -7 18 22 48 41 41 7 -3 16 -12 19
-20z"/>
<path d="M4715 1800 c-38 -75 -44 -120 -19 -144 25 -25 82 -24 102 2 27 35 8
112 -28 112 -23 0 -25 15 -5 50 19 33 19 50 0 50 -8 0 -30 -30 -50 -70z m59
-82 c13 -22 -14 -54 -38 -45 -16 6 -22 48 -9 61 11 11 35 3 47 -16z"/>
<path d="M4910 1850 c-37 -37 -13 -120 35 -120 16 0 20 -16 6 -24 -5 -3 -14
-19 -19 -36 -10 -26 -9 -30 8 -30 24 0 80 113 80 163 0 60 -68 89 -110 47z
m74 -36 c9 -24 -5 -44 -30 -44 -18 0 -24 5 -24 23 0 42 40 58 54 21z"/>
</g>
</svg>
