<?xml version="1.0" standalone="no"?>
<!DOCTYPE svg PUBLIC "-//W3C//DTD SVG 20010904//EN"
 "http://www.w3.org/TR/2001/REC-SVG-20010904/DTD/svg10.dtd">
<svg version="1.0" xmlns="http://www.w3.org/2000/svg"
 width="860.000000pt" height="860.000000pt" viewBox="0 0 860.000000 860.000000"
 preserveAspectRatio="xMidYMid meet">
<metadata>
Created by potrace 1.11, written by Peter Selinger 2001-2013
</metadata>
<g transform="translate(0.000000,860.000000) scale(0.100000,-0.100000)"
fill="#000000" stroke="none">
<path d="M1430 6925 c-691 -95 -1242 -620 -1382 -1317 -32 -162 -32 -443 0
-606 44 -220 140 -451 259 -622 l59 -84 -65 -96 c-247 -364 -335 -816 -245
-1260 66 -322 272 -672 522 -886 228 -195 502 -327 787 -380 153 -29 462 -27
607 4 380 81 719 284 947 568 l60 74 50 -64 c122 -153 351 -340 521 -426 394
-199 855 -235 1262 -99 303 102 569 289 779 547 l35 44 29 -39 c51 -67 208
-223 290 -288 200 -157 425 -261 685 -316 143 -31 453 -34 605 -5 345 64 693
256 916 506 294 328 444 740 426 1170 -13 308 -109 601 -278 850 l-65 96 59
84 c118 170 215 403 259 624 32 160 32 443 0 604 -143 713 -706 1235 -1426
1323 -133 16 -361 7 -496 -21 -362 -73 -706 -276 -935 -550 l-74 -89 -51 64
c-180 226 -458 419 -748 519 -180 62 -299 81 -522 81 -223 0 -342 -19 -522
-81 -290 -100 -568 -293 -748 -519 l-51 -64 -76 91 c-208 247 -511 439 -825
523 -200 53 -442 68 -648 40z m375 -1265 c83 -32 173 -122 205 -205 82 -217
-24 -447 -239 -515 -76 -24 -149 -25 -222 -4 -249 73 -356 367 -211 583 101
151 290 208 467 141z m2656 -7 c120 -56 199 -164 219 -300 12 -85 13 -2021 1
-2116 -18 -134 -97 -242 -219 -300 -61 -29 -76 -32 -162 -32 -86 0 -101 3
-162 32 -122 58 -198 162 -218 298 -13 94 -13 2026 0 2118 13 89 48 162 107
221 82 83 170 117 294 112 59 -2 89 -9 140 -33z m2600 17 c218 -68 328 -317
231 -524 -35 -75 -77 -125 -140 -164 -215 -137 -497 -33 -573 211 -39 127 -9
270 77 366 54 60 97 88 172 112 75 24 155 24 233 -1z m-5306 -2015 c124 -32
228 -133 267 -259 56 -182 -28 -373 -201 -459 -61 -30 -73 -32 -166 -32 -87 0
-107 3 -156 26 -203 95 -283 325 -184 526 82 166 257 245 440 198z m5273 5
c165 -38 285 -177 299 -346 17 -210 -140 -397 -349 -412 -257 -18 -456 207
-404 457 18 86 51 144 115 204 98 92 215 125 339 97z"/>
</g>
</svg>
